<svg width="104" height="19" viewBox="0 0 104 19" fill="none" xmlns="http://www.w3.org/2000/svg">
<path d="M12.56 1.2V11.4L4.208 1.2H0.992V18H4.832V7.8L13.208 18H16.4V1.2H12.56ZM30.6948 18.288C35.4948 18.288 37.8228 15.888 37.8228 13.08C37.8228 6.912 28.0548 9.048 28.0548 5.952C28.0548 4.896 28.9428 4.032 31.2468 4.032C32.7348 4.032 34.3428 4.464 35.9028 5.352L37.1028 2.4C35.5428 1.416 33.3828 0.912 31.2708 0.912C26.4948 0.912 24.1908 3.288 24.1908 6.144C24.1908 12.384 33.9588 10.224 33.9588 13.368C33.9588 14.4 33.0228 15.168 30.7188 15.168C28.7028 15.168 26.5908 14.448 25.1748 13.416L23.8548 16.344C25.3428 17.496 28.0308 18.288 30.6948 18.288ZM56.8475 1.2V11.4L48.4955 1.2H45.2795V18H49.1195V7.8L57.4955 18H60.6875V1.2H56.8475ZM72.9423 18H76.8303V4.368H82.2063V1.2H67.5663V4.368H72.9423V18ZM103.978 18L100.21 12.6C102.394 11.664 103.666 9.816 103.666 7.296C103.666 3.528 100.858 1.2 96.3702 1.2H89.0982V18H92.9862V13.32H96.3702H96.5622L99.8022 18H103.978ZM99.7302 7.296C99.7302 9.12 98.5302 10.224 96.1542 10.224H92.9862V4.368H96.1542C98.5302 4.368 99.7302 5.448 99.7302 7.296Z" fill="#F5F1EE"/>
</svg>
